# xmcd
#
# Track frame offsets:
#  150
#  20502
#  54902
#  74555
#  86282
#  101532
#  120195
#  146760
#  193987
#  219240
#
# Disc length: 3046 seconds
#
# Revision: 0
# Processed by: cddbd v1.4PL0 Copyright (c) Steve Scherf et al.
# Submitted via: AltoMP3_Maker 3.0
#
DISCID=860be40a
DTITLE=Checkerboard Blues Band - Blues For The Lady
DYEAR=1900
DGENRE=
TTITLE0=Everything I Do Is Wrong
TTITLE1=Blues On Monday Morning
TTITLE2=Evil Gal Blues
TTITLE3=Chilly Waters
TTITLE4=Mississippi Steamboat
TTITLE5=Hey, Bartender!
TTITLE6=Ain't Nobody's Business
TTITLE7=Trouble Trouble Trouble
TTITLE8=Everyday I Have The Blues
TTITLE9=Same Ol' Steamboat
EXTD=
EXTT0=
EXTT1=
EXTT2=
EXTT3=
EXTT4=
EXTT5=
EXTT6=
EXTT7=
EXTT8=
EXTT9=
PLAYORDER=
